<svg width="100" height="68" viewBox="0 0 100 68" fill="none" xmlns="http://www.w3.org/2000/svg">
<path d="M28.1504 58L22.457 51.4473C22.3008 51.2585 22.1999 51.125 22.1543 51.0469H22.1152V58H20.8164V43.9961H22.1152V50.5879H22.1543C22.1999 50.5163 22.2487 50.4479 22.3008 50.3828C22.3529 50.3177 22.4082 50.2493 22.4668 50.1777L27.916 43.9961H29.5664L23.4922 50.7539L29.9668 58H28.1504ZM35.5039 58.2344C34.7617 58.2344 34.0944 58.1107 33.502 57.8633C32.916 57.6159 32.4147 57.2676 31.998 56.8184C31.5814 56.3626 31.2624 55.819 31.041 55.1875C30.8197 54.556 30.709 53.8561 30.709 53.0879C30.709 52.2546 30.8262 51.5091 31.0605 50.8516C31.2949 50.194 31.627 49.6374 32.0566 49.1816C32.4928 48.7194 33.0169 48.3678 33.6289 48.127C34.2409 47.8861 34.9245 47.7656 35.6797 47.7656C36.4023 47.7656 37.0534 47.8861 37.6328 48.127C38.2122 48.3613 38.7038 48.7031 39.1074 49.1523C39.5111 49.6016 39.8203 50.1484 40.0352 50.793C40.25 51.4375 40.3574 52.1699 40.3574 52.9902C40.3574 53.7715 40.2435 54.4844 40.0156 55.1289C39.7943 55.7669 39.4753 56.3171 39.0586 56.7793C38.6419 57.2415 38.1341 57.5996 37.5352 57.8535C36.9362 58.1074 36.2591 58.2344 35.5039 58.2344ZM35.6016 48.8496C35.0547 48.8496 34.5599 48.944 34.1172 49.1328C33.6745 49.3216 33.2936 49.5983 32.9746 49.9629C32.6621 50.321 32.4212 50.7637 32.252 51.291C32.0827 51.8118 31.998 52.4043 31.998 53.0684C31.998 53.6934 32.0827 54.2565 32.252 54.7578C32.4212 55.2591 32.6589 55.6888 32.9648 56.0469C33.2773 56.4049 33.6549 56.6816 34.0977 56.877C34.5404 57.0658 35.0352 57.1602 35.582 57.1602C36.1419 57.1602 36.6367 57.069 37.0664 56.8867C37.4961 56.6979 37.8607 56.4277 38.1602 56.0762C38.4596 55.7181 38.6842 55.2819 38.834 54.7676C38.9902 54.2533 39.0684 53.6673 39.0684 53.0098C39.0684 51.6621 38.7689 50.6335 38.1699 49.9238C37.571 49.2077 36.7148 48.8496 35.6016 48.8496ZM49.625 58V52.2383C49.625 49.9792 48.8047 48.8496 47.1641 48.8496C46.7279 48.8496 46.3242 48.9375 45.9531 49.1133C45.582 49.2826 45.2598 49.5202 44.9863 49.8262C44.7194 50.1322 44.5078 50.4967 44.3516 50.9199C44.2018 51.3366 44.127 51.7891 44.127 52.2773V58H42.877V48H44.127V49.7383H44.166C44.9082 48.4232 46.0247 47.7656 47.5156 47.7656C48.6094 47.7656 49.4427 48.1204 50.0156 48.8301C50.5885 49.5397 50.875 50.5651 50.875 51.9062V58H49.625ZM55.1426 56.3887V62.5996H53.8926V48H55.1426V49.9141H55.1816C55.5527 49.2174 56.0475 48.6868 56.666 48.3223C57.291 47.9512 57.9941 47.7656 58.7754 47.7656C59.4134 47.7656 59.9831 47.8828 60.4844 48.1172C60.9922 48.3451 61.4186 48.6706 61.7637 49.0938C62.1152 49.5169 62.3822 50.0312 62.5645 50.6367C62.7533 51.2422 62.8477 51.9225 62.8477 52.6777C62.8477 53.5046 62.7435 54.2598 62.5352 54.9434C62.3268 55.6204 62.0273 56.2031 61.6367 56.6914C61.2461 57.1797 60.7708 57.5605 60.2109 57.834C59.6576 58.1009 59.0326 58.2344 58.3359 58.2344C56.9297 58.2344 55.8783 57.6191 55.1816 56.3887H55.1426ZM55.1426 53.8398C55.1426 54.2956 55.2174 54.7253 55.3672 55.1289C55.5234 55.526 55.7383 55.8776 56.0117 56.1836C56.2852 56.4831 56.6139 56.7207 56.998 56.8965C57.3887 57.0723 57.8184 57.1602 58.2871 57.1602C58.7884 57.1602 59.2409 57.056 59.6445 56.8477C60.0482 56.6328 60.39 56.3301 60.6699 55.9395C60.9564 55.5488 61.1745 55.0768 61.3242 54.5234C61.4805 53.9701 61.5586 53.3516 61.5586 52.668C61.5586 52.082 61.487 51.5547 61.3438 51.0859C61.2005 50.6107 60.9954 50.207 60.7285 49.875C60.4681 49.543 60.1491 49.2891 59.7715 49.1133C59.4004 48.9375 58.9837 48.8496 58.5215 48.8496C58.0007 48.8496 57.5319 48.9473 57.1152 49.1426C56.6986 49.3314 56.3438 49.5918 56.0508 49.9238C55.7578 50.2559 55.5332 50.6465 55.377 51.0957C55.2207 51.5384 55.1426 52.0104 55.1426 52.5117V53.8398ZM70.3379 49.2793C70.0449 49.0645 69.6673 48.957 69.2051 48.957C68.873 48.957 68.5801 49.0221 68.3262 49.1523C68.0723 49.276 67.8477 49.4453 67.6523 49.6602C67.4635 49.875 67.3008 50.1257 67.1641 50.4121C67.0339 50.6921 66.9264 50.985 66.8418 51.291C66.7637 51.597 66.7051 51.9062 66.666 52.2188C66.6335 52.5312 66.6172 52.8275 66.6172 53.1074V58H65.377V48H66.6172V50.1387H66.6562C66.7734 49.7741 66.9199 49.4486 67.0957 49.1621C67.278 48.8691 67.4863 48.625 67.7207 48.4297C67.9551 48.2279 68.209 48.0749 68.4824 47.9707C68.7624 47.8665 69.0553 47.8145 69.3613 47.8145C69.5632 47.8145 69.7422 47.8275 69.8984 47.8535C70.0612 47.8796 70.2077 47.9186 70.3379 47.9707V49.2793ZM75.9727 58.2344C75.2305 58.2344 74.5632 58.1107 73.9707 57.8633C73.3848 57.6159 72.8835 57.2676 72.4668 56.8184C72.0501 56.3626 71.7311 55.819 71.5098 55.1875C71.2884 54.556 71.1777 53.8561 71.1777 53.0879C71.1777 52.2546 71.2949 51.5091 71.5293 50.8516C71.7637 50.194 72.0957 49.6374 72.5254 49.1816C72.9616 48.7194 73.4857 48.3678 74.0977 48.127C74.7096 47.8861 75.3932 47.7656 76.1484 47.7656C76.8711 47.7656 77.5221 47.8861 78.1016 48.127C78.681 48.3613 79.1725 48.7031 79.5762 49.1523C79.9798 49.6016 80.2891 50.1484 80.5039 50.793C80.7188 51.4375 80.8262 52.1699 80.8262 52.9902C80.8262 53.7715 80.7122 54.4844 80.4844 55.1289C80.263 55.7669 79.944 56.3171 79.5273 56.7793C79.1107 57.2415 78.6029 57.5996 78.0039 57.8535C77.4049 58.1074 76.7279 58.2344 75.9727 58.2344ZM76.0703 48.8496C75.5234 48.8496 75.0286 48.944 74.5859 49.1328C74.1432 49.3216 73.7624 49.5983 73.4434 49.9629C73.1309 50.321 72.89 50.7637 72.7207 51.291C72.5514 51.8118 72.4668 52.4043 72.4668 53.0684C72.4668 53.6934 72.5514 54.2565 72.7207 54.7578C72.89 55.2591 73.1276 55.6888 73.4336 56.0469C73.7461 56.4049 74.1237 56.6816 74.5664 56.877C75.0091 57.0658 75.5039 57.1602 76.0508 57.1602C76.6107 57.1602 77.1055 57.069 77.5352 56.8867C77.9648 56.6979 78.3294 56.4277 78.6289 56.0762C78.9284 55.7181 79.153 55.2819 79.3027 54.7676C79.459 54.2533 79.5371 53.6673 79.5371 53.0098C79.5371 51.6621 79.2376 50.6335 78.6387 49.9238C78.0397 49.2077 77.1836 48.8496 76.0703 48.8496Z" fill="white" fillOpacity="0.87"/>
<path d="M26.0869 8.47461V20.9544L31.6328 14.988H38.5827L31.5606 22.0482L39.375 34.1996H33.1811L28.0675 25.6156L26.0869 27.5851V34.1996H21V8.47461H26.0869Z" fill="#E3E3E3"/>
<path d="M38.6367 9.11904H43.8368V4.7998H38.6367V9.11904Z" fill="#E3E3E3"/>
<path d="M38.6367 31.116H43.8368V12.0303H38.6367V31.116Z" fill="#E3E3E3"/>
<path d="M55.2998 12.1835V15.7444H51.4625V25.3397C51.4625 26.2396 51.6101 26.8392 51.9053 27.1388C52.2005 27.4387 52.7907 27.5889 53.6764 27.5889C53.9716 27.5889 54.2538 27.5764 54.5249 27.5513C54.7953 27.5268 55.0535 27.4893 55.2998 27.4387V31.5622C54.857 31.6373 54.3646 31.687 53.824 31.7121C53.2824 31.7366 52.7539 31.7498 52.2374 31.7498C51.4256 31.7498 50.6564 31.6937 49.9311 31.5811C49.2054 31.4684 48.5661 31.2501 48.0127 30.9252C47.4591 30.6008 47.022 30.138 46.7027 29.5382C46.3829 28.9385 46.223 28.1513 46.223 27.1767V15.7444H43.0498V12.1835H46.223V4.7998H51.4625V12.1835H55.2998Z" fill="#E3E3E3"/>
<path d="M58.0238 39.2204C58.2504 39.5921 58.5429 39.8963 58.9008 40.1325C59.259 40.3691 59.671 40.5436 60.1362 40.6559C60.6016 40.7689 61.0849 40.825 61.5863 40.825C61.9443 40.825 62.3203 40.7858 62.714 40.7068C63.1082 40.6281 63.4661 40.504 63.7883 40.3351C64.1103 40.1663 64.3788 39.9414 64.5938 39.6597C64.8085 39.3783 64.916 39.0236 64.916 38.5954C64.916 37.8754 64.4085 37.3349 63.3946 36.9742C62.3795 36.6144 60.9654 36.2537 59.1515 35.8935C58.4115 35.7362 57.6893 35.5505 56.9855 35.3361C56.2812 35.1222 55.6545 34.841 55.1057 34.4917C54.5563 34.143 54.1147 33.7037 53.7812 33.1742C53.4467 32.6455 53.2798 31.9978 53.2798 31.2321C53.2798 30.1063 53.5124 29.1832 53.9778 28.4623C54.4434 27.7418 55.0574 27.1733 55.8218 26.7565C56.5855 26.34 57.4449 26.0472 58.3996 25.8782C59.3541 25.7093 60.333 25.625 61.3356 25.625C62.3379 25.625 63.3106 25.7152 64.2537 25.8952C65.1962 26.0757 66.0379 26.3794 66.7779 26.8074C67.5172 27.2353 68.1321 27.8036 68.6217 28.5129C69.1106 29.2222 69.4214 30.4891 69.517 31.5698H64.623C64.5657 30.6606 64.3143 29.7382 63.5555 29.3236C62.9041 28.9677 62.0993 28.8339 61.1924 28.8339C60.9059 28.8339 60.5953 28.8506 60.2615 28.8845C59.9268 28.9182 59.6225 28.9916 59.3483 29.104C59.074 29.2172 58.8411 29.3801 58.6503 29.5938C58.4588 29.808 58.3639 30.0953 58.3639 30.4552C58.3639 30.8833 58.5306 31.2322 58.8651 31.5024C59.1993 31.7726 59.635 31.9921 60.1722 32.1607C60.7089 32.3298 61.3233 32.4817 62.0158 32.6171C62.708 32.752 63.4125 32.8987 64.1284 33.0562C64.8677 33.2138 65.5903 33.4055 66.2944 33.6301C66.9982 33.8557 67.6249 34.1538 68.1742 34.5254C68.7229 34.897 69.1642 35.3589 69.4987 35.9103C69.833 36.4624 70.0001 37.143 70.0001 37.9538C70.0001 39.1024 69.755 40.0651 69.2661 40.8419C68.7765 41.6186 68.1384 42.2434 67.3508 42.7165C66.5629 43.1895 65.6618 43.5217 64.6476 43.7129C63.6325 43.9041 62.6007 44 61.5503 44C60.4763 44 59.4254 43.8988 58.3996 43.6963C57.3731 43.4935 56.4602 43.1556 55.6605 42.6827C54.8606 42.2097 54.2043 41.5849 53.6913 40.8081C53.1779 40.0314 52.8977 39.0575 52.8501 37.8863H57.6835C57.6835 38.4045 57.7966 38.8488 58.0238 39.2204Z" fill="#E3E3E3"/>
</svg>
